<?xml version="1.0" encoding="utf-8" ?>
<svg xmlns="http://www.w3.org/2000/svg" xmlns:xlink="http://www.w3.org/1999/xlink" width="512" height="512">
	<path fill="#9F4BE7" transform="scale(0.5 0.5)" d="M801.481 113.25C807.294 113.102 813.21 113.564 819.042 113.559C838.846 113.541 858.653 113.555 878.455 113.412C897.095 113.278 915.732 113.343 934.371 113.213C945.61 113.134 957.029 112.563 968.25 113.033C972.099 113.194 976.388 114.079 979.967 115.446C989.242 118.99 998.485 127.997 1002.29 137.28L1003.74 141.244C1004.74 144.929 1005.33 148.058 1005.7 151.902C1006.15 156.501 1006.55 161.9 1005.26 166.365C1001.42 179.623 993.761 191.978 988.505 204.747C978.392 229.315 968.169 253.826 957.761 278.268C951.867 292.111 946.318 306.814 939.146 320.026C934.925 315.692 931.251 310.168 927.509 305.382C919.754 295.463 911.868 285.616 904.217 275.621C901.07 271.51 898.281 267.129 895.002 263.122C887.837 269.163 881.4 276.122 874.779 282.742C869.336 288.185 863.629 293.354 858.172 298.78C852.794 304.129 847.7 309.764 842.342 315.135C832.853 324.646 822.978 333.769 813.462 343.256C805.274 351.419 797.486 359.965 789.304 368.14C781.501 375.936 773.397 383.424 765.554 391.18C743.701 412.789 722.041 434.594 700.199 456.216C682.13 474.102 664.212 492.111 645.958 509.816C638.26 517.283 630.857 525.308 622.713 532.279C618.772 535.652 614.455 538.593 609.537 540.344L608.75 540.616C603.23 542.558 597.284 543.345 591.445 543.144C583.814 542.88 575.771 540.501 569.484 536.09C561.657 530.598 554.755 522.538 548.062 515.714C538.629 506.095 529.157 496.505 519.625 486.984C508.613 475.985 497.465 465.129 486.551 454.031C479.109 446.463 471.959 438.637 464.428 431.145C444.066 410.889 423.176 390.95 403.467 370.065C398.657 373.393 394.451 378.599 390.354 382.798C382.411 390.937 374.514 399.116 366.538 407.223C338.767 435.451 310.701 463.469 282.635 491.406C267.297 507.244 251.547 522.718 235.904 538.254C229.208 544.904 222.901 552.49 215.746 558.616C213.275 560.732 210.447 562.591 207.444 563.852L206.638 564.181C199.759 567.073 191.05 568.517 183.605 567.347C170.036 565.215 158.476 557.596 150.688 546.344C142.531 534.56 139.562 517.971 141.904 504C142.622 499.723 144.197 495.349 146.725 491.784C149.408 488.002 153.114 484.73 156.408 481.479C160.892 477.052 165.267 472.538 169.604 467.969C196.998 439.108 225.413 411.248 253.367 382.939C279.861 356.108 306.474 329.339 332.782 302.331C343.249 291.586 353.744 280.918 364.316 270.277C368.544 266.021 372.497 261.195 377.053 257.322C382.819 252.421 389.449 250.255 396.75 248.869C400.374 248.181 405.372 248.018 408.979 248.787C415.911 250.265 421.451 252.175 427.101 256.583C431.568 260.069 435.441 264.779 439.575 268.694C454.609 282.933 469.019 297.854 483.553 312.599C495.324 324.541 507.445 336.116 519.236 348.028C544.286 373.335 569.145 398.974 594.692 423.773C605.074 412.715 616.098 402.37 626.699 391.534C666.674 350.675 707.358 310.569 747.623 269.996C767.599 249.867 787.619 229.784 807.595 209.653C819.371 197.785 831.008 184.611 844.133 174.243C834.548 162.354 826.14 149.075 817.472 136.5C814.056 131.544 810.448 126.664 806.957 121.75C805.112 119.152 802.941 116.563 801.644 113.639L801.481 113.25Z"/>
	<path fill="#9F4BE7" transform="scale(0.5 0.5)" d="M826.589 492.676C826.133 490.798 826.532 487.723 826.525 485.736C826.503 478.722 826.283 471.653 826.809 464.655L913.848 464.638C914.185 474.196 913.956 483.809 914.017 493.375C914.159 515.572 914.174 537.769 914.31 559.968C914.609 608.449 914.253 656.917 914.134 705.395C914.081 726.667 914.5 747.942 914.291 769.215C913.972 801.698 913.99 834.179 914.018 866.663C914.026 875.653 914.032 884.643 914.029 893.633C914.028 899.321 913.694 905.239 914.444 910.878C918.03 911.734 923.015 911.127 926.731 911.123C934.103 911.116 941.476 911.155 948.848 911.108C959.285 911.042 968.58 910.338 978.375 914.713C990.695 920.216 999.133 929.778 1003.99 942.25C1006.94 949.821 1006.76 959.038 1005.99 967C1004.9 978.276 996.705 989.299 988.228 996.315C981.427 1001.94 972.219 1005.82 963.393 1006.39C956.974 1006.8 950.351 1006.49 943.913 1006.49C932.678 1006.48 921.442 1006.55 910.207 1006.59C870.603 1006.7 830.996 1006.55 791.392 1006.52C675.405 1006.44 559.417 1006.44 443.431 1006.53C355.488 1006.6 267.544 1006.48 179.601 1006.53C152.07 1006.55 124.539 1006.58 97.008 1006.57C88.922 1006.57 80.836 1006.54 72.75 1006.54C67.7906 1006.54 62.6474 1006.82 57.7154 1006.29C44.8901 1004.89 34.5279 997.137 26.5912 987.431C24.9435 985.416 23.5581 983.38 22.3544 981.075C19.335 975.291 17.2368 969.079 17.1278 962.5C16.8856 947.89 17.4705 933.18 17.4256 918.548C17.2539 862.666 17.4454 806.778 17.4716 750.894C17.5406 603.892 17.4867 456.889 17.4726 309.886C17.4675 256.712 17.5022 203.539 17.4108 150.365C17.3864 136.192 17.3905 122.017 17.2789 107.845C17.191 96.6927 17.2287 85.5541 17.3415 74.4021C17.4207 66.5804 16.6649 58.0218 19.151 50.4955C23.1402 38.4185 32.1879 27.8007 43.5962 22.1445C55.191 16.3958 68.8641 16.3911 81 20.427C90.0634 23.4411 98.9417 30.9365 103.949 38.9853C106.066 42.3887 107.887 45.6302 109.124 49.474L109.426 50.4466C110.166 53.5159 111.108 56.2339 111.269 59.4142C112.165 77.0415 111.529 95.0454 111.538 112.703C111.554 146.018 111.522 179.334 111.543 212.649C111.556 232.818 111.568 252.988 111.554 273.157C111.55 279.174 111.546 285.19 111.541 291.206C111.538 294.218 111.807 297.521 111.449 300.489L111.573 910.932C114.942 911.418 118.537 911.032 121.951 911.023C128.341 911.006 134.731 911.003 141.122 910.998C164.381 910.979 187.641 910.911 210.899 911.206L211.041 623.094L295.297 623.013C296.202 630.03 295.39 637.989 295.434 645.122C295.55 664.01 295.516 682.895 295.538 701.782C295.592 749.643 295.397 797.494 295.433 845.358C295.45 867.37 295.035 889.473 295.584 911.473L357.462 911.462L356.605 588.528L443.118 589.029L442.974 911.009L515.672 911.323C516.164 906.861 515.878 902.174 515.858 897.681C515.819 888.767 515.576 879.849 515.593 870.936C515.696 815.741 515.831 760.542 515.844 705.35C515.848 689.886 515.742 674.423 515.616 658.96C515.58 654.492 515.545 650.025 515.526 645.557C515.518 643.527 515.169 640.924 516.007 639.065C516.638 638.8 516.721 638.733 517.5 638.598C519.428 638.262 521.907 638.492 523.899 638.483C528.506 638.462 533.114 638.475 537.722 638.479C546.156 638.484 597.573 637.472 600.25 639.137C601.391 643.29 600.254 649.644 600.209 654.083C600.111 664.03 600.304 673.996 600.371 683.944C600.749 740.388 600.096 796.819 600.375 853.261C600.431 864.655 600.389 876.04 600.249 887.434C600.153 895.241 599.805 903.108 600.212 910.904C603.46 911.865 609.109 911.085 612.656 911.07C623.007 911.026 633.358 911.012 643.709 911.022C651.813 911.029 659.9 911.365 668 911.589C668.505 824.926 668.184 738.223 668.082 651.557C668.059 631.992 668.031 612.426 668.004 592.861C667.998 588.029 667.992 583.197 667.988 578.366C667.986 576.274 667.665 573.657 668.212 571.672C678.203 571.204 688.23 571.773 698.228 571.754C711.382 571.729 724.538 571.531 737.694 571.512C741.651 571.506 750.346 570.466 753.673 572.25C753.937 572.818 754.211 573.372 754.28 574.006C754.495 575.965 754.11 578.492 754.1 580.508C754.072 586.024 754.06 591.54 754.044 597.056C753.992 615.547 754.06 634.036 754.093 652.526C754.205 716.879 754.09 781.24 754.027 845.593C754.013 859.519 753.991 873.445 754.01 887.371C754.021 895.119 753.58 903.305 754.491 910.994L825.734 911.716L826.506 910.58L826.589 492.676ZM111.449 300.489C111.341 302.471 111.443 304.539 110.526 306.338C109.802 322.416 110.45 338.767 110.465 354.871C110.495 386.044 110.53 417.216 110.562 448.389C110.653 538.114 110.401 627.842 110.446 717.57C110.468 760.946 110.683 804.334 110.436 847.709C110.348 863.144 110.426 878.568 110.538 894.002C110.575 899.189 109.824 905.369 110.668 910.431L111.573 910.932L111.449 300.489ZM826.589 492.676L826.506 910.58L827.297 910.121C827.928 907.48 827.565 904.121 827.565 901.372C827.566 895.352 827.559 889.333 827.559 883.313C827.558 858.946 827.558 834.579 827.558 810.212C827.555 705.81 827.314 601.401 827.701 497L827.25 496.257C827.353 494.959 826.966 493.896 826.589 492.676ZM109.426 50.4466C109.368 52.2466 108.827 55.0096 109.755 56.5C111.059 58.5938 110.368 93.1299 110.388 98.3365C110.565 143.243 110.504 188.157 110.455 233.064C110.428 257.476 110.092 281.932 110.526 306.338C111.443 304.539 111.341 302.471 111.449 300.489C111.807 297.521 111.538 294.218 111.541 291.206C111.546 285.19 111.55 279.174 111.554 273.157C111.568 252.988 111.556 232.818 111.543 212.649C111.522 179.334 111.554 146.018 111.538 112.703C111.529 95.0454 112.165 77.0415 111.269 59.4142C111.108 56.2339 110.166 53.5159 109.426 50.4466Z"/>
	<path fill="#2F2F2F" transform="scale(0.5 0.5)" d="M109.426 50.4466C110.166 53.5159 111.108 56.2339 111.269 59.4142C112.165 77.0415 111.529 95.0454 111.538 112.703C111.554 146.018 111.522 179.334 111.543 212.649C111.556 232.818 111.568 252.988 111.554 273.157C111.55 279.174 111.546 285.19 111.541 291.206C111.538 294.218 111.807 297.521 111.449 300.489C111.341 302.471 111.443 304.539 110.526 306.338C110.092 281.932 110.428 257.476 110.455 233.064C110.504 188.157 110.565 143.243 110.388 98.3365C110.368 93.1299 111.059 58.5938 109.755 56.5C108.827 55.0096 109.368 52.2466 109.426 50.4466Z"/>
	<path fill="#C83535" transform="scale(0.5 0.5)" d="M826.589 492.676C826.966 493.896 827.353 494.959 827.25 496.257L827.701 497C827.314 601.401 827.555 705.81 827.558 810.212C827.558 834.579 827.558 858.946 827.559 883.313C827.559 889.333 827.566 895.352 827.565 901.372C827.565 904.121 827.928 907.48 827.297 910.121L826.506 910.58L826.589 492.676Z"/>
	<path fill="#554747" transform="scale(0.5 0.5)" d="M111.449 300.489L111.573 910.932L110.668 910.431C109.824 905.369 110.575 899.189 110.538 894.002C110.426 878.568 110.348 863.144 110.436 847.709C110.683 804.334 110.468 760.946 110.446 717.57C110.401 627.842 110.653 538.114 110.562 448.389C110.53 417.216 110.495 386.044 110.465 354.871C110.45 338.767 109.802 322.416 110.526 306.338C111.443 304.539 111.341 302.471 111.449 300.489Z"/>
</svg>
